<svg width="18" height="17" viewBox="0 0 18 17" fill="none" xmlns="http://www.w3.org/2000/svg">
<path d="M17.1797 8.14804C17.1797 7.00945 16.2849 6.40458 15.0323 6.40458H11.4174C11.668 5.44389 11.8111 4.51879 11.8111 3.736C11.8111 0.640458 10.9522 0 10.2006 0C9.69951 0 9.34161 0.035581 8.84055 0.35581C8.69738 0.426972 8.6258 0.569296 8.59001 0.71162L8.05316 3.59368C7.48051 5.12366 6.01311 6.44016 4.83203 7.32969V14.944C5.22572 14.944 5.72679 15.1575 6.19206 15.4066C6.76471 15.6912 7.37314 15.9759 8.05316 15.9759H13.1712C14.2449 15.9759 15.0323 15.1219 15.0323 14.3747C15.0323 14.2324 15.0323 14.0901 14.9965 13.9833C15.6765 13.7343 16.106 13.165 16.106 12.5245C16.106 12.2043 16.0344 11.9196 15.927 11.7061C16.3207 11.4215 16.7502 10.9589 16.7502 10.3897C16.7502 10.105 16.607 9.7492 16.3923 9.50013C16.8576 9.14432 17.1797 8.64618 17.1797 8.14804ZM16.0702 8.14804C16.0702 8.82408 15.3544 8.89524 15.247 9.21547C15.1396 9.57128 15.6765 9.71361 15.6765 10.3541C15.6765 11.0301 14.8533 11.0301 14.7459 11.3503C14.6028 11.7417 14.9965 11.8841 14.9965 12.5245C14.9965 12.5601 14.9965 12.5957 14.9965 12.6313C14.8891 13.165 14.0659 13.2006 13.9228 13.414C13.7796 13.6631 13.9586 13.8054 13.9586 14.3747C13.9586 14.6949 13.6007 14.9084 13.1712 14.9084H8.05316C7.65947 14.9084 7.1584 14.695 6.69313 14.4459C6.26364 14.2324 5.83416 14.0189 5.36889 13.9122V8.25479C6.69313 7.25853 8.41106 5.72854 9.09108 3.87833C9.09108 3.84274 9.09108 3.80717 9.12687 3.80717L9.62793 1.1386C9.80688 1.06743 9.95004 1.06743 10.2364 1.06743C10.3437 1.06743 10.7732 1.70789 10.7732 3.736C10.7732 4.51879 10.6301 5.40831 10.3437 6.40458H10.2006C9.91425 6.40458 9.66372 6.65364 9.66372 6.93829C9.66372 7.22294 9.91425 7.47201 10.2006 7.47201H15.0323C15.5691 7.47201 16.0702 7.72107 16.0702 8.14804Z" fill="#666565"/>
<path d="M4.29484 16.0117H1.07371C0.465274 16.0117 0 15.5491 0 14.9442V7.47222C0 6.86734 0.465274 6.40479 1.07371 6.40479H4.29484C4.90327 6.40479 5.36855 6.86734 5.36855 7.47222V14.9442C5.36855 15.5491 4.90327 16.0117 4.29484 16.0117ZM1.07371 7.47222V14.9442H4.29484V7.47222H1.07371Z" fill="#666565"/>
</svg>
