<svg width="29" height="19" viewBox="0 0 29 19" fill="none" xmlns="http://www.w3.org/2000/svg">
<path fill-rule="evenodd" clip-rule="evenodd" d="M0.0456246 0.0436631C-0.0227534 0.110368 -0.0112487 5.96076 0.0599513 7.34186C0.186071 9.78721 0.811097 11.6758 2.12736 13.5888C3.2879 15.2756 4.60503 16.4639 6.43286 17.4731C8.32928 18.5202 10.3109 18.9845 12.8949 18.9873L14.1835 18.9887L14.1584 14.7711C14.1344 10.7159 14.1272 10.5242 13.9701 9.7913C13.8803 9.37201 13.7109 8.74273 13.5937 8.39297C12.0996 3.93286 8.14701 0.719675 3.39542 0.102463C2.64348 0.00477029 0.130645 -0.0393471 0.0456246 0.0436631ZM23.0921 10.2004C20.5225 10.6549 18.4228 12.1821 17.2654 14.4388C16.7152 15.5115 16.4927 16.4465 16.4376 17.9179L16.397 19L19.3201 18.972C22.2008 18.9445 22.2531 18.9415 22.9453 18.7595C25.9238 17.9765 28.202 15.6502 28.7836 12.7978C28.9362 12.0491 29.0534 10.4853 28.9749 10.244C28.9266 10.0955 28.9134 10.0948 26.2721 10.1011C24.4172 10.1056 23.4595 10.1355 23.0921 10.2004Z" fill="#1AAA55"/>
</svg>
