<svg width="38" height="38" viewBox="0 0 38 38" fill="none" xmlns="http://www.w3.org/2000/svg">
<path d="M37.9989 18.9994C37.9989 19.6568 37.9668 20.3044 37.9017 20.9444C37.8265 21.6793 37.7089 22.4042 37.5517 23.1118C35.9692 30.2916 30.3219 35.9465 23.1467 37.5438C22.7318 37.6365 22.3142 37.714 21.8919 37.7789H21.8894C20.9468 37.9241 19.9816 37.9989 18.9994 37.9989C8.50703 37.9989 0 29.4916 0 18.9995C0.000164524 8.50704 8.5072 0 18.9995 0C29.4919 0 37.9989 8.50703 37.9989 18.9994Z" fill="#1ABC00"/>
<path d="M37.7538 22.0597C36.5906 29.2395 31.4015 35.0719 24.5787 37.1646L22.4597 35.3911L7.81376 23.1373H7.81212L7.78415 23.1176L7.77099 23.1077L7.76934 23.1061L7.77263 23.083V23.0781L8.0622 20.4737L7.31361 19.8238L6.02539 18.71L6.03543 18.7133L6.02539 18.7034L6.03691 18.6919L6.03197 18.6936L6.04201 18.6853L6.40215 18.6179L6.69352 18.5603L7.31378 18.4369L7.32036 18.4352L7.34668 18.4171L8.67291 18.1276H8.67455L8.70417 18.1654L8.92298 17.5978L8.93779 17.5814L9.71105 15.742L9.7076 15.6861L9.72257 15.714L9.72586 15.7074V15.7058L9.72092 15.6959L9.72273 15.6861L10.6506 17.3264L11.0439 18.0239L13.6451 18.2296L13.7225 18.2214L13.7077 18.246L13.7042 18.251L13.7223 18.2526L13.7009 18.2592L13.6878 18.2773L13.6828 18.2839L14.971 19.6165L15.1158 18.7396L13.668 17.3445V17.3428L11.1771 14.9539L11.1969 14.9589L11.1788 14.9408L11.2018 14.9194L11.1905 14.921L11.2118 14.9029H11.2135L11.9489 14.8075L12.4129 14.7417L13.813 14.536L13.8278 14.5344L13.8839 14.4998L16.6002 14.0523H16.6035L16.6594 14.1313L17.1614 13.0043L17.1924 12.9731L18.9529 9.32556L18.9512 9.21533L18.9792 9.27127L18.9841 9.25975V9.25811L18.9775 9.23672L18.9792 9.21698L20.6869 12.6374L21.4125 14.0902L26.6559 14.7795L26.8138 14.7697H26.8154L26.7842 14.8207L26.8023 14.8322L26.8057 14.8355L35.6685 20.6826L37.7538 22.0597Z" fill="#1ABC00"/>
<path d="M26.8147 14.7223L26.7835 14.7971L26.7769 14.8172L26.7703 14.8315L26.7637 14.8427L26.7374 14.8787L26.716 14.9041L22.9336 18.6606L23.8961 24.0391L23.8911 24.0358L23.8878 24.0343L22.5404 23.3466L19.0443 21.559L14.3323 24.1001H14.3306L14.2352 24.1388L14.2385 24.1154L14.2566 23.9925L14.2583 23.983L14.839 20.4278L14.9723 19.6183L15.1491 18.7399L13.7351 17.3448V17.3431L11.2302 14.9592L11.1953 14.9411L11.2096 14.9115L11.2113 14.8868H11.2129L11.9483 14.7996L12.4123 14.7379L13.8124 14.5408L13.8272 14.5337L13.8831 14.5054L16.5994 14.0642H16.6027L16.6587 14.1374L17.1605 13.0076L17.1917 12.9748L18.9521 9.32669L18.9867 9.27191L18.9998 9.26006V9.25842L18.985 9.23703L18.9826 9.21729L20.6883 12.6377L21.4127 14.0905L26.6556 14.756L26.8131 14.7223H26.8147Z" fill="#FFEA4B"/>
<path d="M23.8959 24.0457L19.0455 21.5438L19.0176 16.8345L23.8959 24.0457Z" fill="#F8D417"/>
<path d="M18.9993 16.833V16.8347L14.2882 24.026L14.2334 24.1165L14.2324 24.1214L14.255 23.9931L14.2571 23.9832L14.8382 20.4279L14.9379 19.6168L15.0508 18.7398V18.7349L18.9993 16.833Z" fill="#F8D417"/>
<path d="M19.0174 16.8478L15.1487 18.7423L13.7346 17.3446V17.343L11.21 14.9541L11.2129 14.959L13.7676 15.5744L17.2959 16.42L17.3431 16.4463L19.0043 16.8609H19.0059L19.0174 16.8478Z" fill="#F2A81D"/>
<path d="M26.8095 14.8338L26.8046 14.8355L26.7634 14.8453L26.6976 14.8618L19.0177 16.8328L18.9749 12.0978L18.9518 9.32556L18.9502 9.21533L18.9782 9.27127L20.6711 12.6358L21.4032 14.0902L26.6532 14.8124L26.7766 14.8289L26.8013 14.8322L26.8095 14.8338Z" fill="#F2A81D"/>
<path d="M26.8093 14.834L26.6967 14.8619L19.0176 16.8334L21.4028 14.0903L26.6523 14.8126L26.8093 14.834Z" fill="#F8D417"/>
<path d="M11.2125 14.9033L11.2503 14.9132L11.201 14.9198L11.1895 14.9214L11.2108 14.9033H11.2125Z" fill="#F8D417"/>
<path d="M19.0099 16.8501L17.3416 16.4396L17.2923 16.4243L13.7616 15.5439L11.251 14.9146L12.4125 14.743L13.8126 14.5372L13.8274 14.5352L16.5848 14.1206L16.5955 14.1387L19 16.8303V16.8616H19.0066L19.0099 16.8501Z" fill="#F8D417"/>
<path d="M13.7215 18.2213L13.7067 18.246L13.7034 18.251L13.7017 18.2559L13.7001 18.2592L13.6869 18.2773L13.682 18.2839L13.677 18.2904L13.2378 18.7741L11.9101 20.2368L12.5204 22.8609L12.5188 22.8593L12.0779 22.6618L10.069 21.7512L7.81341 23.1126H7.81177V23.1571V23.1472L7.79055 23.1455L7.8019 23.1077L7.81177 23.083V23.0781L8.08159 20.4737L7.32297 19.8238L6.03985 18.7133L6.02734 18.7034L6.03787 18.6919L6.04215 18.6853L6.40213 18.6178L6.69317 18.5603L7.31343 18.4402L7.31984 18.4352L7.34617 18.4418L8.67223 18.1769H8.67387L8.70349 18.1901L8.92231 17.6101L8.93711 17.5874L9.71037 15.7451L9.75233 15.7155L9.78606 15.7074V15.7058L9.75068 15.6959L9.73719 15.686L10.6574 17.3263L11.0468 18.0239L13.6461 18.2296L13.7215 18.2213Z" fill="#FFEA4B"/>
<path d="M12.521 22.8629L10.0687 21.7547L9.93457 19.436L12.521 22.8629Z" fill="#F8D417"/>
<path d="M9.93569 19.4355L7.79359 23.0995L7.78372 23.1176L7.76727 23.1456L7.76562 23.1472L7.78866 23.1061L7.81169 23.083V23.0781L8.14074 20.4737V20.472L9.97024 19.4372L9.93569 19.4355Z" fill="#F8D417"/>
<path d="M9.93612 19.4934L9.93119 19.4662L8.0622 20.4868L7.31361 19.8313L6.02539 18.7139L6.03526 18.7153L7.31361 18.9514L9.07402 19.2767L9.10034 19.3101L9.92954 19.4934H9.93612Z" fill="#F2A81D"/>
<path d="M13.7214 18.2526L13.7 18.2592L13.6671 18.2691L13.5931 18.2921L9.93572 19.4355L9.79258 17.1042L9.71032 15.742L9.70703 15.686L9.72184 15.714L10.6415 17.3206L11.0397 18.0124H11.043L13.6408 18.1769H13.6441L13.7033 18.2164L13.7214 18.2526Z" fill="#F2A81D"/>
<path d="M13.7222 18.2524L13.7008 18.259L13.6679 18.2689L13.5939 18.2919L9.93652 19.4296L11.0405 18.0122H11.0438L13.6416 18.1767H13.6449L13.7041 18.2162L13.7222 18.2524Z" fill="#F8D417"/>
<path d="M6.0421 18.6851L6.05855 18.6883L6.03716 18.6916L6.03223 18.6933L6.0421 18.6851Z" fill="#F8D417"/>
<path d="M9.95089 19.4931V19.4372L9.11034 19.2809L9.07891 19.2759L7.31587 18.9337L6.05957 18.6886L6.69397 18.5603L7.3139 18.4369L7.32032 18.4352L8.66777 18.1621L8.68504 18.1703L9.95089 19.4339V19.4931Z" fill="#F8D417"/>
<path d="M31.4682 18.2212L31.4534 18.2465L31.4478 18.2557L31.433 18.2773L31.423 18.29L29.656 20.2363L30.267 22.8604L30.2644 22.8586L27.8147 21.7639L25.5589 23.137H25.5579L25.5115 23.1571L25.5191 23.0835L25.8075 20.4747L25.0589 19.8248V19.8238L23.7809 18.7126L23.7715 18.7042L23.7825 18.6927L23.7873 18.6848H23.7883L24.1471 18.6187L25.0589 18.4412L25.0923 18.4178L26.4188 18.1284H26.4206L26.4503 18.1664V18.1654L26.6683 17.5978L26.6831 17.582L27.4705 15.7074V15.7064L27.4669 15.6962L27.4672 15.686L28.3954 17.327L28.7896 18.0244L31.3899 18.2299L31.4672 18.2212H31.4682Z" fill="#FFEA4B"/>
<path d="M30.268 22.8634L27.8156 21.7552L27.6816 19.4365L30.268 22.8634Z" fill="#F8D417"/>
<path d="M27.6813 19.436L25.5397 23.099L25.5117 23.147L25.5193 23.0784L25.8077 20.472L27.6813 19.436Z" fill="#F8D417"/>
<path d="M27.6811 19.4363L25.8075 20.4723L25.0589 19.8249V19.8239L23.7715 18.7109L23.7809 18.7127L25.0589 18.9503L26.8203 19.2767L26.8454 19.2813L27.6746 19.4353L27.6811 19.4363Z" fill="#F2A81D"/>
<path d="M31.4675 18.2526L31.4129 18.2692L27.6813 19.4362L27.5393 17.1052L27.4531 15.686L28.3883 17.327L28.7861 18.0244L31.3897 18.246L31.4675 18.2526Z" fill="#F2A81D"/>
<path d="M31.4678 18.2526L31.4132 18.2692L27.6816 19.4362L28.7864 18.0244L31.39 18.246L31.4678 18.2526Z" fill="#F8D417"/>
<path d="M27.6767 19.437L26.8457 19.2812L25.0591 18.9344L23.7885 18.6848H23.7875L23.7773 18.6942L25.0591 18.4374L26.4135 18.1616L26.4209 18.1705L27.6749 19.4345L27.6767 19.437Z" fill="#F8D417"/>
<path d="M19.0002 0C8.5085 0 0.000976562 8.50753 0.000976562 18.9992C0.000976562 29.4909 8.5085 37.9984 19.0002 37.9984C19.9824 37.9984 20.9482 37.9244 21.8909 37.778H21.8925C22.8106 37.6381 23.7089 37.4308 24.5792 37.1643C31.402 35.0715 36.5911 29.2392 37.7543 22.0594C37.8151 21.6908 37.8645 21.319 37.9022 20.9439C37.968 20.3039 37.9994 19.6573 37.9994 18.9992C37.9994 8.50753 29.4919 0 19.0002 0ZM35.6648 20.7168C34.9228 27.9954 29.5511 33.9051 22.4601 35.3907C22.2051 35.445 21.9468 35.4927 21.6869 35.5339L21.5487 35.5536C20.7129 35.6836 19.8557 35.7494 19.0002 35.7494C9.76547 35.7494 2.25002 28.2339 2.25002 18.9992C2.25002 9.76449 9.76547 2.24904 19.0002 2.24904C28.2349 2.24904 35.7504 9.76449 35.7504 18.9992C35.7504 19.5652 35.7207 20.1311 35.6681 20.6823C35.6665 20.6938 35.6665 20.7053 35.6648 20.7168Z" fill="#FFCA10"/>
</svg>
