<svg width="24" height="32" viewBox="0 0 24 32" fill="none" xmlns="http://www.w3.org/2000/svg">
<path fill-rule="evenodd" clip-rule="evenodd" d="M9.73835 0.186788C9.33405 0.826101 8.94838 5.74371 9.04388 9.04328C9.13768 12.2799 9.24448 12.9904 9.80644 14.1177C12.1927 18.9069 18.976 19.2112 21.5194 14.6438C22.5461 12.7996 22.7165 11.4072 22.1489 9.49839C21.5109 7.35345 20.0392 5.96878 14.8553 2.63607C10.8931 0.0887574 10.0542 -0.312787 9.73835 0.186788ZM15.4955 4.95526C19.6244 7.65584 20.9289 9.24266 20.9289 11.5641C20.9289 15.0699 17.2695 17.4977 13.9987 16.1619C12.7595 15.6557 11.3573 14.0321 10.9255 12.6033C10.541 11.3307 10.4571 4.96576 10.8015 3.19695L11.0058 2.14809L12.0497 2.76615C12.6241 3.1061 14.1747 4.09115 15.4955 4.95526ZM12.3888 11.7712C12.3922 13.3166 15.046 15.3091 16.826 15.1025C18.0536 14.96 17.9671 14.326 16.7197 14.3246C15.2944 14.3232 13.8659 13.4417 13.3556 12.2484C12.9197 11.2285 12.3871 10.9656 12.3888 11.7712ZM3.92213 16.7277C0.24582 20.6075 -0.45881 22.0323 0.241588 24.1686C1.54237 28.136 7.13962 28.5405 8.86872 24.7922C9.54199 23.3332 9.28743 20.929 8.09118 17.4474C6.86838 13.8891 6.64772 13.851 3.92213 16.7277ZM6.86668 18.6752C7.15006 19.5487 7.44249 21.0748 7.5168 22.067C7.64026 23.7188 7.58799 23.9452 6.89466 24.7502C5.57721 26.2807 3.28926 26.1539 2.09245 24.4837C1.51778 23.682 1.52937 22.0844 2.11591 21.2223C2.66345 20.417 5.93858 17.0873 6.18269 17.0873C6.27536 17.0873 6.58301 17.8017 6.86668 18.6752ZM15.2633 20.056C14.8641 20.8218 14.2747 26.2846 14.4256 27.8203C14.6643 30.25 16.5307 32 18.8831 32C22.0613 32 24.3213 29.0763 23.4188 26.1324C22.9967 24.7549 20.9046 22.6514 18.1827 20.8671C16.0111 19.4438 15.6368 19.3399 15.2633 20.056ZM3.25253 21.6901C2.80105 22.1314 3.09036 23.6431 3.74075 24.2401C4.57281 25.0043 5.07149 24.5102 4.30441 23.6815C4.00888 23.3625 3.82071 22.7881 3.85744 22.3181C3.91734 21.5473 3.6656 21.286 3.25253 21.6901ZM19.082 23.4967C21.9195 25.6792 22.5956 27.3036 21.4383 29.1589C20.441 30.7576 18.0146 30.8404 16.6573 29.3215C16.0086 28.5955 15.9885 28.4477 16.1391 25.4619C16.225 23.7541 16.3787 22.2256 16.4801 22.0651C16.7059 21.7078 16.8819 21.8044 19.082 23.4967ZM16.9082 27.4061C16.9082 28.1826 18.0598 29.2384 18.9065 29.2384C19.9813 29.2384 19.9615 28.8912 18.8636 28.4861C18.3853 28.3097 17.9256 27.9098 17.842 27.5972C17.6733 26.9672 16.9082 26.8107 16.9082 27.4061Z" fill="#979797"/>
</svg>
